/vscmnt/brussel_pixiu_data/_data_brussel/112/vsc11236/PredSimResults/SUBJ07mtu3D/worker1.mot
version=1
nRows=4
nColumns=50
inDegrees=yes
endheader
                time	         pelvis_tilt	         pelvis_list	     pelvis_rotation	           pelvis_tx	           pelvis_ty	           pelvis_tz	       hip_flexion_r	     hip_adduction_r	      hip_rotation_r	        knee_angle_r	       ankle_angle_r	         mtp_angle_r	       hip_flexion_l	     hip_adduction_l	      hip_rotation_l	        knee_angle_l	       ankle_angle_l	         mtp_angle_l	    lumbar_extension	      lumbar_bending	     lumbar_rotation	 ercspn_r/activation	 intobl_r/activation	 extobl_r/activation	    abd_r/activation	    add_r/activation	hamstrings_r/activation	bifemsh_r/activation	glut_max_r/activation	iliopsoas_r/activation	rect_fem_r/activation	  vasti_r/activation	gastroc_r/activation	 soleus_r/activation	tib_ant_r/activation	 ercspn_l/activation	 intobl_l/activation	 extobl_l/activation	    abd_l/activation	    add_l/activation	hamstrings_l/activation	bifemsh_l/activation	glut_max_l/activation	iliopsoas_l/activation	rect_fem_l/activation	  vasti_l/activation	gastroc_l/activation	 soleus_l/activation	tib_ant_l/activation	
          0.00000000	         -3.42192444	          0.32427211	          8.46141365	          0.00000000	          0.85117449	         -0.01286341	         29.77689485	         -2.51817033	         -4.25278008	         -8.08734065	          4.26358779	          0.26691671	        -14.82696558	          0.67504373	          3.70625056	         -9.47622116	          8.03030210	         27.77266453	        -11.74572894	         -1.99044235	         -1.19068525	          0.12773801	          0.13396718	          0.00999999	          0.02155457	          0.13742968	          0.05673466	          0.09265678	          0.08570818	          0.02817540	          0.01183455	          0.00999999	          0.00999999	          0.00999999	          0.37328115	          0.13563080	          0.00999999	          0.00999999	          0.03376587	          0.01550061	          0.01521349	          0.12708144	          0.01794450	          0.18120992	          0.01183455	          0.01183455	          0.14154404	          0.27923051	          0.01788064	
          0.01100737	         -3.41267937	          0.38532330	          8.44172417	          0.01581762	          0.84962457	         -0.01259224	         29.51364040	         -2.29995495	         -3.80884124	         -9.49137222	          3.94805744	          0.24849702	        -15.35471603	          0.62376475	          3.35050327	        -10.44454237	          7.08213259	         29.30007991	        -11.61447912	         -1.62113573	         -1.43940442	          0.10793641	          0.12071286	          0.00999999	          0.01821324	          0.11612570	          0.05487958	          0.08467402	          0.13475379	          0.02380773	          0.00999999	          0.00999999	          0.01595316	          0.01183455	          0.40021303	          0.15087507	          0.00999999	          0.00999999	          0.02853157	          0.02959433	          0.01285514	          0.10738162	          0.01516279	          0.15311925	          0.00999999	          0.00999999	          0.11960226	          0.26098364	          0.01510883	
          0.02201474	         -3.39771630	          0.44374494	          8.37220856	          0.03176317	          0.84828120	         -0.01223725	         29.16998179	         -2.13077185	         -3.39393797	        -10.81710997	          3.58510698	          0.24474394	        -15.72102584	          0.58487990	          2.95284515	        -11.71875707	          6.03865765	         30.76263096	        -11.47967167	         -1.24878125	         -1.67909529	          0.14570271	          0.10200028	          0.00999999	          0.10516329	          0.13292802	          0.05085559	          0.08065760	          0.13331327	          0.02011712	          0.00999999	          0.00999999	          0.01348014	          0.00999999	          0.45793549	          0.16448682	          0.00999999	          0.00999999	          0.02410869	          0.02500670	          0.01086238	          0.09073561	          0.01281229	          0.12938312	          0.01000000	          0.00999999	          0.10106184	          0.23922703	          0.01276670	
          0.03302211	         -3.37873383	          0.51763576	          8.25631667	          0.04764846	          0.84730692	         -0.01178736	         28.83854041	         -1.98110037	         -3.06078135	        -12.14099623	          3.15886331	          0.22639635	        -15.85182571	          0.57683312	          2.52465361	        -13.39716081	          4.86898381	         32.10482642	        -11.36183845	         -0.89340968	         -1.90811250	          0.15287174	          0.08618847	          0.00999999	          0.14970650	          0.15623170	          0.04297209	          0.06815427	          0.15295960	          0.01699862	          0.00999999	          0.01000000	          0.01139049	          0.00999999	          0.47834599	          0.19859667	          0.00999999	          0.00999999	          0.02037142	          0.02540455	          0.01000005	          0.07667002	          0.01082617	          0.10932649	          0.00999999	          0.00999999	          0.08539551	          0.20859270	          0.01078764	
